<svg id="layer_1" enable-background="new 0 0 32 32" viewBox="0 0 32 32" xmlns="http://www.w3.org/2000/svg"><path d="m7.8994141 12.3920898c1.8867188-3.1635742 5.2070312-5.0522461 8.8813477-5.0522461 5.6958008 0 10.3300781 4.6342773 10.3300781 10.3300781s-4.6342774 10.3300782-10.3300782 10.3300782c-2.65625 0-5.1816406-1.0102539-7.1113281-2.8447266-.2287598-.2181396-.5325317-.2908936-.8238525-.2506714-.2166748.0299072-.4274902.1155396-.5897217.2863159-.3808594.4003907-.3647461 1.0332032.0356445 1.4135743 2.3032227 2.1894531 5.3178711 3.3955078 8.4892578 3.3955078 6.7988281 0 12.3300781-5.53125 12.3300781-12.3300781 0-6.4613037-4.9983521-11.7674561-11.3300781-12.2794189v-1.390503h.4130859c.5522461 0 1-.4477539 1-1s-.4477539-1-1-1h-2.8266602c-.5522461 0-1 .4477539-1 1s.4477539 1 1 1h.4135742v1.406189c-3.9377441.3266602-7.5540771 2.5328369-9.5991211 5.9614868-.2827148.4741211-.1274414 1.0883789.3466797 1.3710938.203064.1212769.4301147.1471558.647583.1169434.2902833-.0402833.5621339-.1922609.7235109-.4636232z"/><path d="m13.4160156 25.2802734c1.0493164.4775391 2.1811524.7197266 3.3647461.7197266 4.5932617 0 8.3300781-3.7368164 8.3300781-8.3300781s-3.7368164-8.3300781-8.3300781-8.3300781c-1.9262695 0-3.8076172.6782227-5.2973633 1.9091797-.4257812.3520508-.4853516.9824219-.1337891 1.4082031.3520508.4257812.9833984.484375 1.4082031.1337891 1.1484375-.9492188 2.5395508-1.4511719 4.0229492-1.4511719 3.4902344 0 6.3300781 2.8398438 6.3300781 6.3300781s-2.8398436 6.3300781-6.330078 6.3300781c-.8955078 0-1.7485352-.1816406-2.5356445-.5400391-.5043945-.2280273-1.0961914-.0073242-1.324707.4956055-.229004.5029297-.006836 1.0957031.4956054 1.324707z"/><path d="m17.487793 18.375 2.6865234-2.6870117c.390625-.390625.390625-1.0239258 0-1.4140625-.390625-.390625-1.0234375-.390625-1.4140625 0l-2.6865234 2.6870117c-.390625.390625-.390625 1.0239258 0 1.4140625.1953125.1953125.4511719.2929688.7070312.2929688s.5117188-.0976563.7070313-.2929688z"/><path d="m13.7338867 19.8754883c.5522461 0 1-.4477539 1-1s-.4477539-1-1-1h-5.8623657-1.4823608c-.5522461 0-1 .4477539-1 1s.4477539 1 1 1h1.7595215z"/><path d="m12.2338867 14.8754883c0-.5522461-.4477539-1-1-1h-3.916687-3.4280395c-.5522461 0-1 .4477539-1 1s.4477539 1 1 1h3.7052002 3.6395264c.552246 0 .9999999-.4477539.9999999-1z"/><path d="m12.2338867 22.8754883c0-.5522461-.4477539-1-1-1h-2.8081055-4.536621c-.5522461 0-1 .4477539-1 1s.4477539 1 1 1h4.8137817 2.5309448c.5522461 0 1-.4477539 1-1z"/></svg>